<?xml version="1.0" encoding="utf-8"?>
<svg version="1.1" id="Layer_1" xmlns="http://www.w3.org/2000/svg" x="0px" y="0px" width="100%" viewBox="0 0 167 150" enable-background="new 0 0 167 150">
  <path fill="#3A2F32" opacity="1.000000" stroke="none" d="M 126.766 133.746 C 119.231 132.125 112.171 130.145 104.98 128.968 C 88.532 126.274 72.971 130.738 57.514 135.583 C 55.453 136.23 53.434 137.044 51.34 137.55 C 45.972 138.847 40.159 134.698 40.078 129.237 C 40.061 128.143 41.868 126.292 43.1 126.027 C 51.206 124.285 59.591 123.556 67.481 121.166 C 74.477 119.046 77.758 112.407 80.63 105.558 C 78.861 106.229 77.126 107.023 75.313 107.539 C 73.272 108.12 71.079 109.037 69.096 108.763 C 65.354 108.246 61.026 107.496 60.215 102.899 C 59.428 98.434 62.213 95.588 65.963 93.338 C 73.936 88.556 81.765 83.532 89.614 78.544 C 91.137 77.576 92.478 76.32 94.314 74.874 C 88.272 70.723 88.084 64.743 87.904 58.483 C 87.802 54.9 86.601 51.233 85.294 47.835 C 84.125 44.797 85.154 42.439 88.872 41.957 C 94.232 41.261 98.034 44.154 101.173 47.635 C 108.382 44.735 116.152 42.924 121.067 34.869 C 118.604 34.47 116.908 33.865 115.264 33.98 C 99.781 35.068 84.518 37.399 70.134 43.543 C 65.987 45.315 62.235 45.225 58.092 43.881 C 52.344 42.017 50.985 43.114 48.895 48.638 C 45.903 56.545 42.619 64.352 39.128 72.051 C 38.378 73.705 35.329 76.095 34.85 75.788 C 32.647 74.375 29.597 72.276 29.37 70.153 C 28.597 62.943 28.352 55.797 33.967 49.506 C 38.874 44.009 42.106 37.302 38.496 29.436 C 43.998 29.171 45.21 30.213 48.516 37.496 C 57.526 35.539 66.548 33.579 75.657 31.6 C 77.213 28.039 75.448 25.545 73.335 22.699 C 69.952 18.141 67.184 13.127 63.709 7.595 C 79.202 7.886 89.028 15.94 91.51 29.297 C 101.374 28.525 111.275 27.899 121.141 26.915 C 125.942 26.436 129.523 27.916 132.437 31.668 C 134.474 34.29 136.995 36.552 138.899 39.257 C 142.361 44.173 140.717 48.967 134.947 50.399 C 124.884 52.896 114.725 54.568 104.454 51.316 C 103.085 58.931 104.009 60.416 109.897 65.553 C 116.765 71.544 115.94 74.952 108.381 78.19 C 95.283 83.802 82.406 89.93 69.582 96.332 C 75.911 97.241 82.005 95.981 86.778 91.973 C 93.758 86.111 98.824 89.366 105.164 95.778 C 107.642 98.284 105.77 100.663 103.887 102.729 C 99.437 107.609 94.992 112.495 89.749 118.254 C 98.641 117.731 106.285 117.078 113.941 116.891 C 121.281 116.711 126.635 120.496 130.081 126.729 C 131.771 129.786 131.996 133.007 126.766 133.746 Z"/>
  <path fill="#3B3033" opacity="1.000000" stroke="none" d="M 75.503 57.395 C 78.621 60.729 78.86 64.068 75.901 66.942 C 69.75 72.916 63.762 79.207 56.876 84.227 C 51.538 88.119 48.563 85.882 49.124 79.133 C 49.479 74.871 49.347 70.356 55.759 69.267 C 60.245 68.506 63.42 59.861 62.006 55.236 C 61.811 54.6 61.465 53.943 61.505 53.316 C 61.637 51.278 61.916 49.249 62.138 47.216 C 63.999 47.612 66.379 47.423 67.617 48.521 C 70.464 51.046 72.756 54.198 75.503 57.395 Z"/>
</svg>